<svg width="270" height="368" viewBox="0 0 270 368" fill="none" xmlns="http://www.w3.org/2000/svg">
<path fill-rule="evenodd" clip-rule="evenodd" d="M159.813 3.12488C184.138 10.9099 202.473 27.4959 212.569 50.8489C217.309 61.8129 219.094 71.1599 219.027 84.6709C218.955 99.1069 216.669 108.458 209.813 122.369C198.428 145.465 175.293 162.613 149.432 167.122C138.251 169.072 131.393 169.075 120.274 167.136C93.8035 162.52 71.4375 145.717 59.0445 121.136C36.3685 76.1599 60.0195 19.3209 107.882 3.76388C118.689 0.250882 122.657 -0.24512 137.313 0.0868801C149.244 0.35788 152.569 0.806882 159.813 3.12488ZM205.313 212.481C231.429 219.735 250.676 235.939 261.817 260.052C267.009 271.289 269.269 281.186 269.265 292.671C269.262 303.442 268.064 307.848 263.086 315.406C254.476 328.479 219.028 350.205 192.813 358.477C138.833 375.509 79.9895 367.923 33.3135 337.916C6.39345 320.609 -1.21757 309.428 0.152434 289.197C2.84643 249.395 33.3315 216.709 73.3135 210.751C76.6135 210.26 105.863 209.948 138.313 210.058C195.894 210.254 197.505 210.312 205.313 212.481Z" fill="#808080"/>
</svg>
